<svg xmlns="http://www.w3.org/2000/svg" xmlns:xlink="http://www.w3.org/1999/xlink" width="500" zoomAndPan="magnify" viewBox="0 0 375 374.999991" height="500" preserveAspectRatio="xMidYMid meet" version="1.0"><defs><g/><clipPath id="d4568fd598"><path d="M 0.769531 0.769531 L 352.230469 0.769531 L 352.230469 352.230469 L 0.769531 352.230469 Z M 0.769531 0.769531 " clip-rule="nonzero"/></clipPath><clipPath id="3c0feade13"><rect x="0" width="353" y="0" height="353"/></clipPath></defs><g transform="matrix(1, 0, 0, 1, 11, 11)"><g clip-path="url(#3c0feade13)"><path fill="#000000" d="M 176.515625 16.765625 L 336.277344 176.53125 L 176.511719 336.292969 L 16.75 176.527344 Z M 176.515625 16.765625 " fill-opacity="1" fill-rule="nonzero"/><g clip-path="url(#d4568fd598)"><path fill="#000000" d="M 176.5 352.230469 L 0.769531 176.5 L 176.5 0.769531 L 352.230469 176.5 Z M 3.007812 176.5 L 176.5 349.992188 L 349.992188 176.5 L 176.5 3.007812 Z M 3.007812 176.5 " fill-opacity="1" fill-rule="nonzero"/></g><g fill="#ff6a00" fill-opacity="1"><g transform="translate(93.300712, 208.200609)"><g><path d="M 5.484375 -29.390625 C 5.484375 -32.578125 5.863281 -35.640625 6.625 -38.578125 C 7.394531 -41.523438 8.488281 -44.269531 9.90625 -46.8125 C 11.332031 -49.363281 13.050781 -51.679688 15.0625 -53.765625 C 17.070312 -55.859375 19.320312 -57.648438 21.8125 -59.140625 C 24.3125 -60.640625 27.015625 -61.789062 29.921875 -62.59375 C 32.835938 -63.40625 35.90625 -63.8125 39.125 -63.8125 C 41.675781 -63.8125 43.914062 -63.644531 45.84375 -63.3125 C 47.769531 -62.976562 49.445312 -62.554688 50.875 -62.046875 C 52.3125 -61.546875 53.515625 -60.988281 54.484375 -60.375 C 55.460938 -59.769531 56.269531 -59.191406 56.90625 -58.640625 C 56.875 -58.640625 56.859375 -58.539062 56.859375 -58.34375 C 56.859375 -57.90625 56.894531 -57.101562 56.96875 -55.9375 C 57.039062 -54.78125 57.128906 -53.492188 57.234375 -52.078125 C 57.335938 -50.660156 57.421875 -49.21875 57.484375 -47.75 C 57.554688 -46.289062 57.59375 -45.023438 57.59375 -43.953125 C 57.59375 -43.773438 57.535156 -43.578125 57.421875 -43.359375 C 57.304688 -43.140625 57.019531 -43.03125 56.5625 -43.03125 C 56.300781 -43.03125 55.976562 -43.078125 55.59375 -43.171875 C 54.988281 -43.335938 54.222656 -43.734375 53.296875 -44.359375 C 52.367188 -44.984375 51.285156 -45.632812 50.046875 -46.3125 C 48.816406 -47 47.441406 -47.609375 45.921875 -48.140625 C 44.398438 -48.679688 42.742188 -48.953125 40.953125 -48.953125 C 38.578125 -48.953125 36.414062 -48.476562 34.46875 -47.53125 C 32.53125 -46.59375 30.878906 -45.296875 29.515625 -43.640625 C 28.148438 -41.992188 27.09375 -40.03125 26.34375 -37.75 C 25.59375 -35.476562 25.21875 -32.992188 25.21875 -30.296875 C 25.21875 -27.921875 25.476562 -25.65625 26 -23.5 C 26.519531 -21.34375 27.304688 -19.453125 28.359375 -17.828125 C 29.421875 -16.203125 30.738281 -14.898438 32.3125 -13.921875 C 33.894531 -12.953125 35.734375 -12.46875 37.828125 -12.46875 C 39.472656 -12.46875 40.929688 -12.523438 42.203125 -12.640625 C 43.484375 -12.765625 44.671875 -12.957031 45.765625 -13.21875 C 46.867188 -13.476562 47.953125 -13.820312 49.015625 -14.25 C 50.078125 -14.6875 51.210938 -15.238281 52.421875 -15.90625 C 52.484375 -15.9375 52.628906 -15.953125 52.859375 -15.953125 C 53.066406 -15.953125 53.207031 -15.867188 53.28125 -15.703125 C 53.351562 -15.546875 53.390625 -15.222656 53.390625 -14.734375 L 53.390625 -9.515625 C 53.390625 -8.554688 53.378906 -7.617188 53.359375 -6.703125 C 53.347656 -5.796875 53.332031 -4.976562 53.3125 -4.25 C 53.300781 -3.53125 53.285156 -2.945312 53.265625 -2.5 C 53.253906 -2.050781 53.234375 -1.828125 53.203125 -1.828125 C 51.867188 -0.984375 50.441406 -0.296875 48.921875 0.234375 C 47.398438 0.773438 45.835938 1.195312 44.234375 1.5 C 42.628906 1.800781 41.015625 2.003906 39.390625 2.109375 C 37.765625 2.210938 36.195312 2.265625 34.6875 2.265625 C 30.601562 2.265625 26.773438 1.488281 23.203125 -0.0625 C 19.640625 -1.613281 16.546875 -3.78125 13.921875 -6.5625 C 11.304688 -9.34375 9.242188 -12.675781 7.734375 -16.5625 C 6.234375 -20.445312 5.484375 -24.722656 5.484375 -29.390625 Z M 5.484375 -29.390625 "/></g></g></g><g fill="#ff6a00" fill-opacity="1"><g transform="translate(149.546307, 208.200609)"><g><path d="M 43.078125 -58.25 C 43.304688 -59.207031 43.507812 -59.898438 43.6875 -60.328125 C 43.863281 -60.765625 44.238281 -61.054688 44.8125 -61.203125 L 56.078125 -63.859375 C 56.421875 -63.972656 56.796875 -64.03125 57.203125 -64.03125 C 57.585938 -64.03125 57.863281 -63.898438 58.03125 -63.640625 C 58.207031 -63.378906 58.296875 -62.890625 58.296875 -62.171875 C 58.117188 -61.472656 57.972656 -60.40625 57.859375 -58.96875 C 57.742188 -57.53125 57.65625 -55.957031 57.59375 -54.25 C 57.539062 -52.539062 57.5 -50.820312 57.46875 -49.09375 C 57.4375 -47.375 57.421875 -45.878906 57.421875 -44.609375 L 57.421875 -42.21875 C 57.421875 -40.414062 57.40625 -38.457031 57.375 -36.34375 C 57.351562 -34.226562 57.316406 -32.082031 57.265625 -29.90625 C 57.222656 -27.738281 57.171875 -25.59375 57.109375 -23.46875 C 57.054688 -21.351562 57.003906 -19.367188 56.953125 -17.515625 L 56.6875 -10.078125 C 56.65625 -9.941406 56.640625 -9.8125 56.640625 -9.6875 C 56.640625 -9.570312 56.640625 -9.457031 56.640625 -9.34375 L 56.640625 -8.6875 C 56.640625 -8.195312 56.644531 -7.785156 56.65625 -7.453125 C 56.675781 -7.117188 56.6875 -6.820312 56.6875 -6.5625 C 56.6875 -6.269531 56.664062 -6.007812 56.625 -5.78125 C 56.582031 -5.550781 56.472656 -5.328125 56.296875 -5.109375 C 56.117188 -4.890625 55.878906 -4.664062 55.578125 -4.4375 C 55.273438 -4.207031 54.863281 -3.914062 54.34375 -3.5625 C 54.050781 -3.363281 53.570312 -3.066406 52.90625 -2.671875 C 52.238281 -2.285156 51.5 -1.84375 50.6875 -1.34375 C 49.875 -0.851562 49.03125 -0.347656 48.15625 0.171875 C 47.289062 0.691406 46.492188 1.160156 45.765625 1.578125 C 45.046875 2.003906 44.460938 2.347656 44.015625 2.609375 C 43.566406 2.867188 43.34375 3 43.34375 3 L 23.171875 -28.046875 L 21.34375 -2.609375 C 21.3125 -2.378906 21.257812 -2.132812 21.1875 -1.875 C 21.113281 -1.613281 20.921875 -1.410156 20.609375 -1.265625 C 20.347656 -1.148438 19.894531 -0.96875 19.25 -0.71875 C 18.613281 -0.46875 17.867188 -0.1875 17.015625 0.125 C 16.160156 0.445312 15.257812 0.773438 14.3125 1.109375 C 13.375 1.441406 12.484375 1.742188 11.640625 2.015625 C 10.804688 2.296875 10.0625 2.519531 9.40625 2.6875 C 8.757812 2.863281 8.316406 2.953125 8.078125 2.953125 C 7.648438 2.953125 7.289062 2.835938 7 2.609375 C 6.707031 2.378906 6.5625 1.957031 6.5625 1.34375 C 6.851562 -2.28125 7.1875 -6.226562 7.5625 -10.5 C 7.9375 -14.769531 8.296875 -19.148438 8.640625 -23.640625 C 8.992188 -28.140625 9.320312 -32.625 9.625 -37.09375 C 9.925781 -41.570312 10.179688 -45.828125 10.390625 -49.859375 C 10.390625 -49.972656 10.207031 -50.359375 9.84375 -51.015625 C 9.476562 -51.671875 9.070312 -52.378906 8.625 -53.140625 C 8.175781 -53.910156 7.769531 -54.632812 7.40625 -55.3125 C 7.050781 -56 6.875 -56.425781 6.875 -56.59375 C 6.875 -56.800781 6.976562 -56.988281 7.1875 -57.15625 C 7.40625 -57.332031 7.765625 -57.566406 8.265625 -57.859375 L 19.859375 -64.421875 C 19.953125 -64.421875 20.078125 -64.4375 20.234375 -64.46875 C 20.390625 -64.5 20.53125 -64.515625 20.65625 -64.515625 C 20.96875 -64.515625 21.21875 -64.476562 21.40625 -64.40625 C 21.59375 -64.332031 21.789062 -64.109375 22 -63.734375 L 43.078125 -25.6875 Z M 43.078125 -58.25 "/></g></g></g><g fill="#ff6a00" fill-opacity="1"><g transform="translate(209.486549, 208.200609)"><g><path d="M 5.484375 -29.390625 C 5.484375 -32.578125 5.863281 -35.640625 6.625 -38.578125 C 7.394531 -41.523438 8.488281 -44.269531 9.90625 -46.8125 C 11.332031 -49.363281 13.050781 -51.679688 15.0625 -53.765625 C 17.070312 -55.859375 19.320312 -57.648438 21.8125 -59.140625 C 24.3125 -60.640625 27.015625 -61.789062 29.921875 -62.59375 C 32.835938 -63.40625 35.90625 -63.8125 39.125 -63.8125 C 41.675781 -63.8125 43.914062 -63.644531 45.84375 -63.3125 C 47.769531 -62.976562 49.445312 -62.554688 50.875 -62.046875 C 52.3125 -61.546875 53.515625 -60.988281 54.484375 -60.375 C 55.460938 -59.769531 56.269531 -59.191406 56.90625 -58.640625 C 56.875 -58.640625 56.859375 -58.539062 56.859375 -58.34375 C 56.859375 -57.90625 56.894531 -57.101562 56.96875 -55.9375 C 57.039062 -54.78125 57.128906 -53.492188 57.234375 -52.078125 C 57.335938 -50.660156 57.421875 -49.21875 57.484375 -47.75 C 57.554688 -46.289062 57.59375 -45.023438 57.59375 -43.953125 C 57.59375 -43.773438 57.535156 -43.578125 57.421875 -43.359375 C 57.304688 -43.140625 57.019531 -43.03125 56.5625 -43.03125 C 56.300781 -43.03125 55.976562 -43.078125 55.59375 -43.171875 C 54.988281 -43.335938 54.222656 -43.734375 53.296875 -44.359375 C 52.367188 -44.984375 51.285156 -45.632812 50.046875 -46.3125 C 48.816406 -47 47.441406 -47.609375 45.921875 -48.140625 C 44.398438 -48.679688 42.742188 -48.953125 40.953125 -48.953125 C 38.578125 -48.953125 36.414062 -48.476562 34.46875 -47.53125 C 32.53125 -46.59375 30.878906 -45.296875 29.515625 -43.640625 C 28.148438 -41.992188 27.09375 -40.03125 26.34375 -37.75 C 25.59375 -35.476562 25.21875 -32.992188 25.21875 -30.296875 C 25.21875 -27.921875 25.476562 -25.65625 26 -23.5 C 26.519531 -21.34375 27.304688 -19.453125 28.359375 -17.828125 C 29.421875 -16.203125 30.738281 -14.898438 32.3125 -13.921875 C 33.894531 -12.953125 35.734375 -12.46875 37.828125 -12.46875 C 39.472656 -12.46875 40.929688 -12.523438 42.203125 -12.640625 C 43.484375 -12.765625 44.671875 -12.957031 45.765625 -13.21875 C 46.867188 -13.476562 47.953125 -13.820312 49.015625 -14.25 C 50.078125 -14.6875 51.210938 -15.238281 52.421875 -15.90625 C 52.484375 -15.9375 52.628906 -15.953125 52.859375 -15.953125 C 53.066406 -15.953125 53.207031 -15.867188 53.28125 -15.703125 C 53.351562 -15.546875 53.390625 -15.222656 53.390625 -14.734375 L 53.390625 -9.515625 C 53.390625 -8.554688 53.378906 -7.617188 53.359375 -6.703125 C 53.347656 -5.796875 53.332031 -4.976562 53.3125 -4.25 C 53.300781 -3.53125 53.285156 -2.945312 53.265625 -2.5 C 53.253906 -2.050781 53.234375 -1.828125 53.203125 -1.828125 C 51.867188 -0.984375 50.441406 -0.296875 48.921875 0.234375 C 47.398438 0.773438 45.835938 1.195312 44.234375 1.5 C 42.628906 1.800781 41.015625 2.003906 39.390625 2.109375 C 37.765625 2.210938 36.195312 2.265625 34.6875 2.265625 C 30.601562 2.265625 26.773438 1.488281 23.203125 -0.0625 C 19.640625 -1.613281 16.546875 -3.78125 13.921875 -6.5625 C 11.304688 -9.34375 9.242188 -12.675781 7.734375 -16.5625 C 6.234375 -20.445312 5.484375 -24.722656 5.484375 -29.390625 Z M 5.484375 -29.390625 "/></g></g></g><g fill="#ff6a00" fill-opacity="1"><g transform="translate(89.365769, 204.265673)"><g><path d="M 3.808594 -29.386719 C 3.808594 -32.714844 4.210938 -35.921875 5.015625 -39 C 5.816406 -42.078125 6.964844 -44.957031 8.453125 -47.628906 C 9.941406 -50.304688 11.746094 -52.742188 13.859375 -54.929688 C 15.976562 -57.125 18.34375 -59.003906 20.964844 -60.574219 C 23.585938 -62.140625 26.425781 -63.351562 29.480469 -64.203125 C 32.539062 -65.058594 35.753906 -65.484375 39.121094 -65.484375 C 41.769531 -65.484375 44.101562 -65.308594 46.125 -64.957031 C 48.144531 -64.609375 49.914062 -64.164062 51.4375 -63.625 C 52.988281 -63.078125 54.300781 -62.46875 55.375 -61.792969 C 56.417969 -61.140625 57.292969 -60.511719 57.992188 -59.902344 L 61.390625 -56.972656 L 56.902344 -56.972656 C 57.359375 -56.972656 57.75 -57.132812 58.070312 -57.457031 C 58.21875 -57.605469 58.335938 -57.773438 58.417969 -57.964844 C 58.46875 -58.085938 58.503906 -58.207031 58.523438 -58.328125 L 58.527344 -58.335938 C 58.527344 -57.9375 58.5625 -57.175781 58.632812 -56.050781 L 58.894531 -52.1875 C 58.996094 -50.761719 59.082031 -49.308594 59.15625 -47.832031 C 59.230469 -46.34375 59.265625 -45.046875 59.265625 -43.949219 C 59.265625 -43.496094 59.144531 -43.039062 58.898438 -42.574219 C 58.464844 -41.769531 57.683594 -41.367188 56.554688 -41.367188 C 56.167969 -41.367188 55.722656 -41.421875 55.222656 -41.539062 L 55.179688 -41.546875 L 55.140625 -41.558594 C 54.363281 -41.78125 53.4375 -42.253906 52.363281 -42.976562 C 51.476562 -43.570312 50.4375 -44.199219 49.246094 -44.855469 C 48.097656 -45.492188 46.804688 -46.0625 45.371094 -46.566406 C 44.027344 -47.039062 42.554688 -47.277344 40.949219 -47.277344 C 38.828125 -47.277344 36.910156 -46.863281 35.199219 -46.03125 C 33.476562 -45.195312 32.011719 -44.046875 30.804688 -42.582031 C 29.574219 -41.089844 28.617188 -39.304688 27.925781 -37.226562 C 27.230469 -35.125 26.882812 -32.8125 26.882812 -30.296875 C 26.882812 -28.054688 27.128906 -25.917969 27.617188 -23.886719 C 28.09375 -21.914062 28.808594 -20.195312 29.761719 -18.734375 C 30.683594 -17.320312 31.828125 -16.195312 33.195312 -15.355469 C 34.503906 -14.546875 36.046875 -14.144531 37.820312 -14.144531 C 39.421875 -14.144531 40.832031 -14.199219 42.058594 -14.3125 C 43.253906 -14.421875 44.363281 -14.597656 45.390625 -14.839844 C 46.40625 -15.078125 47.402344 -15.402344 48.378906 -15.800781 C 49.378906 -16.214844 50.460938 -16.738281 51.621094 -17.375 L 51.648438 -17.390625 L 51.679688 -17.402344 C 51.972656 -17.550781 52.363281 -17.621094 52.859375 -17.621094 C 53.257812 -17.621094 53.625 -17.527344 53.949219 -17.339844 C 54.328125 -17.121094 54.609375 -16.808594 54.792969 -16.40625 C 54.964844 -16.027344 55.050781 -15.46875 55.050781 -14.734375 L 55.050781 -9.519531 C 55.050781 -8.554688 55.042969 -7.609375 55.027344 -6.691406 L 54.984375 -4.230469 C 54.96875 -3.496094 54.957031 -2.902344 54.941406 -2.445312 C 54.933594 -2.183594 54.921875 -1.980469 54.90625 -1.832031 C 54.796875 -0.714844 54.230469 -0.15625 53.207031 -0.15625 L 53.207031 -1.824219 L 54.097656 -0.414062 C 52.660156 0.492188 51.121094 1.234375 49.480469 1.8125 C 47.878906 2.378906 46.230469 2.820312 44.539062 3.140625 C 42.863281 3.457031 41.179688 3.667969 39.488281 3.773438 C 37.832031 3.878906 36.230469 3.929688 34.6875 3.929688 C 30.371094 3.929688 26.324219 3.109375 22.546875 1.464844 C 18.773438 -0.175781 15.496094 -2.46875 12.71875 -5.417969 C 9.945312 -8.359375 7.765625 -11.871094 6.179688 -15.957031 C 4.597656 -20.035156 3.808594 -24.511719 3.808594 -29.386719 Z M 7.148438 -29.386719 C 7.148438 -24.929688 7.863281 -20.855469 9.292969 -17.164062 C 10.722656 -13.484375 12.671875 -10.332031 15.148438 -7.710938 C 17.613281 -5.09375 20.523438 -3.054688 23.878906 -1.597656 C 27.230469 -0.136719 30.835938 0.589844 34.6875 0.589844 C 36.160156 0.589844 37.691406 0.542969 39.28125 0.441406 C 40.832031 0.34375 42.378906 0.152344 43.921875 -0.140625 C 45.445312 -0.429688 46.929688 -0.828125 48.371094 -1.335938 C 49.773438 -1.828125 51.089844 -2.464844 52.316406 -3.238281 L 52.722656 -3.496094 L 53.207031 -3.496094 C 52.746094 -3.496094 52.355469 -3.332031 52.03125 -3.007812 C 51.902344 -2.878906 51.792969 -2.730469 51.714844 -2.5625 C 51.664062 -2.457031 51.625 -2.347656 51.597656 -2.234375 C 51.589844 -2.203125 51.585938 -2.175781 51.582031 -2.152344 L 51.582031 -2.15625 C 51.589844 -2.230469 51.597656 -2.363281 51.601562 -2.554688 C 51.617188 -2.996094 51.632812 -3.574219 51.644531 -4.289062 L 51.691406 -6.742188 C 51.703125 -7.648438 51.710938 -8.574219 51.710938 -9.519531 L 51.710938 -14.734375 C 51.710938 -14.921875 51.707031 -15.0625 51.695312 -15.164062 C 51.691406 -15.179688 51.691406 -15.191406 51.691406 -15.203125 L 51.691406 -15.199219 C 51.703125 -15.148438 51.722656 -15.089844 51.753906 -15.023438 C 51.863281 -14.777344 52.039062 -14.585938 52.277344 -14.449219 C 52.46875 -14.339844 52.660156 -14.285156 52.859375 -14.285156 C 52.796875 -14.285156 52.761719 -14.28125 52.742188 -14.28125 C 52.875 -14.292969 53.015625 -14.339844 53.171875 -14.417969 L 52.425781 -15.910156 L 53.226562 -14.445312 C 51.953125 -13.75 50.761719 -13.171875 49.648438 -12.714844 C 48.507812 -12.246094 47.34375 -11.871094 46.160156 -11.589844 C 44.980469 -11.3125 43.714844 -11.109375 42.359375 -10.988281 C 41.035156 -10.867188 39.519531 -10.804688 37.820312 -10.804688 C 35.417969 -10.804688 33.292969 -11.375 31.445312 -12.511719 C 29.652344 -13.613281 28.160156 -15.078125 26.964844 -16.910156 C 25.804688 -18.695312 24.9375 -20.757812 24.371094 -23.101562 C 23.820312 -25.390625 23.542969 -27.789062 23.542969 -30.296875 C 23.542969 -33.171875 23.949219 -35.832031 24.757812 -38.277344 C 25.578125 -40.75 26.734375 -42.894531 28.226562 -44.707031 C 29.746094 -46.542969 31.582031 -47.988281 33.742188 -49.035156 C 35.914062 -50.089844 38.316406 -50.617188 40.949219 -50.617188 C 42.933594 -50.617188 44.78125 -50.316406 46.480469 -49.71875 C 48.089844 -49.148438 49.550781 -48.503906 50.863281 -47.777344 C 52.136719 -47.074219 53.257812 -46.394531 54.226562 -45.746094 C 55.007812 -45.222656 55.617188 -44.894531 56.054688 -44.769531 L 55.597656 -43.164062 L 55.972656 -44.792969 C 56.226562 -44.734375 56.421875 -44.703125 56.554688 -44.703125 C 56.589844 -44.703125 56.617188 -44.707031 56.632812 -44.707031 C 56.605469 -44.703125 56.574219 -44.695312 56.53125 -44.679688 C 56.285156 -44.585938 56.089844 -44.410156 55.949219 -44.148438 L 55.953125 -44.144531 C 55.9375 -44.089844 55.929688 -44.023438 55.929688 -43.949219 C 55.929688 -44.992188 55.890625 -46.234375 55.820312 -47.667969 C 55.75 -49.121094 55.664062 -50.550781 55.5625 -51.964844 L 55.300781 -55.839844 C 55.226562 -57.035156 55.1875 -57.867188 55.1875 -58.335938 C 55.1875 -59.652344 55.761719 -60.308594 56.902344 -60.308594 L 56.902344 -58.640625 L 55.8125 -57.378906 C 55.238281 -57.871094 54.5 -58.402344 53.601562 -58.964844 C 52.734375 -59.507812 51.644531 -60.011719 50.324219 -60.480469 C 48.980469 -60.953125 47.390625 -61.351562 45.554688 -61.667969 C 43.722656 -61.984375 41.578125 -62.144531 39.121094 -62.144531 C 36.058594 -62.144531 33.144531 -61.757812 30.375 -60.988281 C 27.609375 -60.21875 25.042969 -59.125 22.679688 -57.707031 C 20.3125 -56.292969 18.175781 -54.59375 16.261719 -52.613281 C 14.351562 -50.628906 12.71875 -48.429688 11.371094 -46.003906 C 10.019531 -43.578125 8.976562 -40.960938 8.246094 -38.15625 C 7.511719 -35.355469 7.148438 -32.429688 7.148438 -29.386719 Z M 7.148438 -29.386719 "/></g></g></g><g fill="#ff6a00" fill-opacity="1"><g transform="translate(145.611363, 204.265673)"><g><path d="M 41.457031 -58.644531 C 41.707031 -59.675781 41.933594 -60.449219 42.136719 -60.957031 C 42.523438 -61.917969 43.28125 -62.542969 44.414062 -62.824219 L 55.691406 -65.480469 L 56.074219 -63.855469 L 55.546875 -65.441406 C 56.066406 -65.613281 56.621094 -65.699219 57.207031 -65.699219 C 57.644531 -65.699219 58.046875 -65.613281 58.410156 -65.441406 C 58.824219 -65.246094 59.164062 -64.953125 59.421875 -64.566406 C 59.78125 -64.023438 59.960938 -63.222656 59.960938 -62.160156 L 59.960938 -61.957031 L 59.914062 -61.757812 C 59.761719 -61.148438 59.628906 -60.175781 59.523438 -58.832031 C 59.410156 -57.421875 59.324219 -55.878906 59.265625 -54.195312 C 59.207031 -52.492188 59.164062 -50.785156 59.136719 -49.070312 C 59.105469 -47.355469 59.09375 -45.867188 59.09375 -44.601562 L 59.09375 -42.210938 C 59.09375 -40.40625 59.078125 -38.441406 59.050781 -36.316406 L 58.941406 -29.878906 L 58.789062 -23.433594 L 58.613281 -17.46875 L 58.347656 -9.890625 L 58.320312 -9.757812 C 58.316406 -9.734375 58.3125 -9.710938 58.3125 -9.695312 L 58.308594 -9.695312 L 58.308594 -8.695312 C 58.308594 -8.226562 58.316406 -7.835938 58.332031 -7.527344 C 58.347656 -7.171875 58.355469 -6.847656 58.355469 -6.5625 C 58.355469 -6.171875 58.324219 -5.808594 58.261719 -5.472656 C 58.164062 -4.96875 57.945312 -4.5 57.597656 -4.066406 C 57.335938 -3.742188 57 -3.421875 56.585938 -3.105469 C 56.253906 -2.851562 55.8125 -2.542969 55.261719 -2.175781 L 54.335938 -3.566406 L 55.292969 -2.195312 C 54.96875 -1.96875 54.453125 -1.648438 53.746094 -1.234375 C 53.089844 -0.847656 52.355469 -0.410156 51.550781 0.078125 L 49.027344 1.601562 C 48.148438 2.128906 47.34375 2.605469 46.609375 3.03125 L 44.851562 4.050781 L 42.804688 5.242188 L 21.769531 -27.128906 L 23.167969 -28.039062 L 24.835938 -27.917969 L 23.003906 -2.445312 L 23 -2.402344 C 22.960938 -2.089844 22.894531 -1.761719 22.800781 -1.421875 C 22.589844 -0.660156 22.085938 -0.101562 21.296875 0.257812 C 21 0.390625 20.523438 0.582031 19.859375 0.839844 C 19.214844 1.089844 18.460938 1.375 17.601562 1.695312 C 16.738281 2.015625 15.832031 2.347656 14.878906 2.683594 C 13.925781 3.019531 13.023438 3.328125 12.167969 3.609375 C 11.300781 3.894531 10.523438 4.125 9.839844 4.308594 C 9.046875 4.519531 8.464844 4.625 8.085938 4.625 C 7.261719 4.625 6.550781 4.386719 5.957031 3.910156 C 5.25 3.347656 4.894531 2.492188 4.894531 1.347656 L 4.894531 1.277344 L 5.898438 -10.636719 C 6.277344 -14.910156 6.640625 -19.289062 6.984375 -23.777344 C 7.332031 -28.261719 7.660156 -32.742188 7.964844 -37.214844 C 8.265625 -41.683594 8.519531 -45.925781 8.722656 -49.945312 L 10.390625 -49.859375 L 8.71875 -49.859375 C 8.71875 -49.691406 8.742188 -49.550781 8.785156 -49.429688 C 8.78125 -49.441406 8.765625 -49.472656 8.742188 -49.523438 C 8.667969 -49.679688 8.550781 -49.90625 8.386719 -50.199219 C 8.03125 -50.84375 7.628906 -51.542969 7.1875 -52.296875 C 6.726562 -53.085938 6.308594 -53.832031 5.9375 -54.53125 C 5.734375 -54.914062 5.578125 -55.234375 5.46875 -55.496094 C 5.289062 -55.917969 5.199219 -56.285156 5.199219 -56.597656 C 5.199219 -57.335938 5.515625 -57.957031 6.152344 -58.464844 C 6.429688 -58.691406 6.851562 -58.96875 7.414062 -59.296875 L 19.425781 -66.089844 L 19.867188 -66.089844 C 19.847656 -66.089844 19.835938 -66.089844 19.824219 -66.089844 L 19.828125 -66.089844 C 19.855469 -66.09375 19.890625 -66.101562 19.9375 -66.109375 C 20.195312 -66.15625 20.433594 -66.179688 20.648438 -66.179688 C 21.171875 -66.179688 21.625 -66.105469 22.007812 -65.957031 C 22.582031 -65.738281 23.066406 -65.257812 23.464844 -64.519531 L 44.539062 -26.5 L 43.078125 -25.691406 L 41.410156 -25.691406 L 41.410156 -58.449219 Z M 44.699219 -57.855469 L 43.078125 -58.25 L 44.746094 -58.25 L 44.746094 -19.234375 L 20.527344 -62.933594 C 20.484375 -63.015625 20.453125 -63.0625 20.4375 -63.082031 C 20.523438 -62.984375 20.644531 -62.90625 20.808594 -62.84375 C 20.828125 -62.835938 20.84375 -62.828125 20.855469 -62.828125 C 20.855469 -62.828125 20.851562 -62.828125 20.839844 -62.828125 C 20.792969 -62.835938 20.726562 -62.839844 20.648438 -62.839844 C 20.632812 -62.839844 20.59375 -62.835938 20.535156 -62.824219 C 20.277344 -62.777344 20.054688 -62.753906 19.867188 -62.753906 L 19.867188 -64.421875 L 20.6875 -62.96875 L 9.105469 -56.417969 C 8.683594 -56.167969 8.390625 -55.984375 8.238281 -55.859375 C 8.292969 -55.902344 8.34375 -55.96875 8.394531 -56.058594 C 8.492188 -56.21875 8.539062 -56.402344 8.539062 -56.597656 C 8.539062 -56.71875 8.523438 -56.820312 8.5 -56.902344 C 8.507812 -56.882812 8.519531 -56.847656 8.542969 -56.796875 C 8.613281 -56.628906 8.726562 -56.394531 8.886719 -56.097656 C 9.238281 -55.4375 9.632812 -54.734375 10.070312 -53.984375 C 10.523438 -53.207031 10.9375 -52.484375 11.304688 -51.824219 C 11.503906 -51.464844 11.65625 -51.171875 11.761719 -50.945312 C 11.960938 -50.53125 12.058594 -50.167969 12.058594 -49.859375 L 12.058594 -49.816406 L 12.054688 -49.777344 C 11.851562 -45.738281 11.597656 -41.476562 11.292969 -36.988281 C 10.988281 -32.503906 10.664062 -28.015625 10.316406 -23.519531 C 9.964844 -19.019531 9.605469 -14.632812 9.226562 -10.359375 L 8.226562 1.488281 L 6.5625 1.347656 L 8.234375 1.347656 C 8.234375 1.464844 8.238281 1.542969 8.25 1.574219 C 8.21875 1.480469 8.148438 1.390625 8.042969 1.304688 C 8.027344 1.292969 8.011719 1.285156 7.996094 1.277344 C 8.011719 1.285156 8.042969 1.285156 8.085938 1.285156 C 8.171875 1.285156 8.46875 1.21875 8.980469 1.082031 C 9.601562 0.917969 10.320312 0.699219 11.128906 0.433594 C 11.957031 0.164062 12.835938 -0.136719 13.765625 -0.464844 C 14.699219 -0.796875 15.589844 -1.117188 16.433594 -1.433594 C 17.285156 -1.75 18.023438 -2.03125 18.65625 -2.273438 C 19.265625 -2.511719 19.6875 -2.679688 19.914062 -2.78125 C 19.878906 -2.765625 19.839844 -2.730469 19.789062 -2.679688 C 19.691406 -2.578125 19.621094 -2.457031 19.582031 -2.316406 C 19.632812 -2.5 19.667969 -2.664062 19.6875 -2.816406 L 21.34375 -2.609375 L 19.679688 -2.726562 L 21.859375 -33.117188 L 44.738281 2.089844 L 43.339844 3 L 42.5 1.554688 L 43.175781 1.164062 L 44.9375 0.140625 C 45.652344 -0.273438 46.441406 -0.738281 47.300781 -1.253906 L 49.820312 -2.773438 C 50.636719 -3.273438 51.382812 -3.71875 52.058594 -4.113281 C 52.6875 -4.480469 53.125 -4.753906 53.378906 -4.933594 L 53.394531 -4.941406 L 53.410156 -4.953125 C 53.902344 -5.28125 54.289062 -5.550781 54.5625 -5.761719 C 54.757812 -5.910156 54.902344 -6.039062 54.988281 -6.152344 C 54.996094 -6.160156 55 -6.164062 55.003906 -6.171875 C 55.003906 -6.171875 55.003906 -6.167969 55.003906 -6.167969 C 54.992188 -6.144531 54.984375 -6.121094 54.976562 -6.089844 C 55.003906 -6.21875 55.015625 -6.378906 55.015625 -6.5625 C 55.015625 -6.800781 55.007812 -7.074219 54.996094 -7.382812 C 54.980469 -7.738281 54.972656 -8.175781 54.972656 -8.695312 L 54.972656 -9.695312 C 54.972656 -9.917969 54.996094 -10.160156 55.046875 -10.414062 L 56.683594 -10.085938 L 55.015625 -10.144531 L 55.277344 -17.566406 L 55.449219 -23.511719 L 55.601562 -29.933594 L 55.710938 -36.363281 C 55.738281 -38.472656 55.753906 -40.421875 55.753906 -42.210938 L 55.753906 -44.601562 C 55.753906 -45.882812 55.769531 -47.394531 55.796875 -49.128906 C 55.828125 -50.859375 55.871094 -52.585938 55.929688 -54.308594 C 55.988281 -56.042969 56.074219 -57.640625 56.195312 -59.101562 C 56.316406 -60.625 56.476562 -61.78125 56.671875 -62.566406 L 58.292969 -62.160156 L 56.625 -62.160156 C 56.625 -62.425781 56.609375 -62.632812 56.582031 -62.785156 C 56.578125 -62.820312 56.570312 -62.84375 56.570312 -62.855469 C 56.582031 -62.8125 56.605469 -62.765625 56.644531 -62.714844 C 56.726562 -62.585938 56.839844 -62.492188 56.980469 -62.425781 C 57.070312 -62.382812 57.144531 -62.363281 57.207031 -62.363281 C 56.980469 -62.363281 56.78125 -62.332031 56.605469 -62.273438 L 56.53125 -62.25 L 45.222656 -59.585938 C 45.175781 -59.574219 45.136719 -59.5625 45.113281 -59.550781 L 45.117188 -59.554688 C 45.171875 -59.597656 45.210938 -59.648438 45.238281 -59.714844 C 45.09375 -59.355469 44.914062 -58.734375 44.699219 -57.855469 Z M 44.699219 -57.855469 "/></g></g></g><g fill="#ff6a00" fill-opacity="1"><g transform="translate(205.551605, 204.265673)"><g><path d="M 3.808594 -29.386719 C 3.808594 -32.714844 4.210938 -35.921875 5.015625 -39 C 5.816406 -42.078125 6.964844 -44.957031 8.453125 -47.628906 C 9.941406 -50.304688 11.746094 -52.742188 13.859375 -54.929688 C 15.976562 -57.125 18.34375 -59.003906 20.964844 -60.574219 C 23.585938 -62.140625 26.425781 -63.351562 29.480469 -64.203125 C 32.539062 -65.058594 35.753906 -65.484375 39.121094 -65.484375 C 41.769531 -65.484375 44.101562 -65.308594 46.125 -64.957031 C 48.144531 -64.609375 49.914062 -64.164062 51.4375 -63.625 C 52.988281 -63.078125 54.300781 -62.46875 55.375 -61.792969 C 56.417969 -61.140625 57.292969 -60.511719 57.992188 -59.902344 L 61.390625 -56.972656 L 56.902344 -56.972656 C 57.359375 -56.972656 57.75 -57.132812 58.070312 -57.457031 C 58.21875 -57.605469 58.335938 -57.773438 58.417969 -57.964844 C 58.46875 -58.085938 58.503906 -58.207031 58.523438 -58.328125 L 58.527344 -58.335938 C 58.527344 -57.9375 58.5625 -57.175781 58.632812 -56.050781 L 58.894531 -52.1875 C 58.996094 -50.761719 59.082031 -49.308594 59.15625 -47.832031 C 59.230469 -46.34375 59.265625 -45.046875 59.265625 -43.949219 C 59.265625 -43.496094 59.144531 -43.039062 58.898438 -42.574219 C 58.464844 -41.769531 57.683594 -41.367188 56.554688 -41.367188 C 56.167969 -41.367188 55.722656 -41.421875 55.222656 -41.539062 L 55.179688 -41.546875 L 55.140625 -41.558594 C 54.363281 -41.78125 53.4375 -42.253906 52.363281 -42.976562 C 51.476562 -43.570312 50.4375 -44.199219 49.246094 -44.855469 C 48.097656 -45.492188 46.804688 -46.0625 45.371094 -46.566406 C 44.027344 -47.039062 42.554688 -47.277344 40.949219 -47.277344 C 38.828125 -47.277344 36.910156 -46.863281 35.199219 -46.03125 C 33.476562 -45.195312 32.011719 -44.046875 30.804688 -42.582031 C 29.574219 -41.089844 28.617188 -39.304688 27.925781 -37.226562 C 27.230469 -35.125 26.882812 -32.8125 26.882812 -30.296875 C 26.882812 -28.054688 27.128906 -25.917969 27.617188 -23.886719 C 28.09375 -21.914062 28.808594 -20.195312 29.761719 -18.734375 C 30.683594 -17.320312 31.828125 -16.195312 33.195312 -15.355469 C 34.503906 -14.546875 36.046875 -14.144531 37.820312 -14.144531 C 39.421875 -14.144531 40.832031 -14.199219 42.058594 -14.3125 C 43.253906 -14.421875 44.363281 -14.597656 45.390625 -14.839844 C 46.40625 -15.078125 47.402344 -15.402344 48.378906 -15.800781 C 49.378906 -16.214844 50.460938 -16.738281 51.621094 -17.375 L 51.648438 -17.390625 L 51.679688 -17.402344 C 51.972656 -17.550781 52.363281 -17.621094 52.859375 -17.621094 C 53.257812 -17.621094 53.625 -17.527344 53.949219 -17.339844 C 54.328125 -17.121094 54.609375 -16.808594 54.792969 -16.40625 C 54.964844 -16.027344 55.050781 -15.46875 55.050781 -14.734375 L 55.050781 -9.519531 C 55.050781 -8.554688 55.042969 -7.609375 55.027344 -6.691406 L 54.984375 -4.230469 C 54.96875 -3.496094 54.957031 -2.902344 54.941406 -2.445312 C 54.933594 -2.183594 54.921875 -1.980469 54.90625 -1.832031 C 54.796875 -0.714844 54.230469 -0.15625 53.207031 -0.15625 L 53.207031 -1.824219 L 54.097656 -0.414062 C 52.660156 0.492188 51.121094 1.234375 49.480469 1.8125 C 47.878906 2.378906 46.230469 2.820312 44.539062 3.140625 C 42.863281 3.457031 41.179688 3.667969 39.488281 3.773438 C 37.832031 3.878906 36.230469 3.929688 34.6875 3.929688 C 30.371094 3.929688 26.324219 3.109375 22.546875 1.464844 C 18.773438 -0.175781 15.496094 -2.46875 12.71875 -5.417969 C 9.945312 -8.359375 7.765625 -11.871094 6.179688 -15.957031 C 4.597656 -20.035156 3.808594 -24.511719 3.808594 -29.386719 Z M 7.148438 -29.386719 C 7.148438 -24.929688 7.863281 -20.855469 9.292969 -17.164062 C 10.722656 -13.484375 12.671875 -10.332031 15.148438 -7.710938 C 17.613281 -5.09375 20.523438 -3.054688 23.878906 -1.597656 C 27.230469 -0.136719 30.835938 0.589844 34.6875 0.589844 C 36.160156 0.589844 37.691406 0.542969 39.28125 0.441406 C 40.832031 0.34375 42.378906 0.152344 43.921875 -0.140625 C 45.445312 -0.429688 46.929688 -0.828125 48.371094 -1.335938 C 49.773438 -1.828125 51.089844 -2.464844 52.316406 -3.238281 L 52.722656 -3.496094 L 53.207031 -3.496094 C 52.746094 -3.496094 52.355469 -3.332031 52.03125 -3.007812 C 51.902344 -2.878906 51.792969 -2.730469 51.714844 -2.5625 C 51.664062 -2.457031 51.625 -2.347656 51.597656 -2.234375 C 51.589844 -2.203125 51.585938 -2.175781 51.582031 -2.152344 L 51.582031 -2.15625 C 51.589844 -2.230469 51.597656 -2.363281 51.601562 -2.554688 C 51.617188 -2.996094 51.632812 -3.574219 51.644531 -4.289062 L 51.691406 -6.742188 C 51.703125 -7.648438 51.710938 -8.574219 51.710938 -9.519531 L 51.710938 -14.734375 C 51.710938 -14.921875 51.707031 -15.0625 51.695312 -15.164062 C 51.691406 -15.179688 51.691406 -15.191406 51.691406 -15.203125 L 51.691406 -15.199219 C 51.703125 -15.148438 51.722656 -15.089844 51.753906 -15.023438 C 51.863281 -14.777344 52.039062 -14.585938 52.277344 -14.449219 C 52.46875 -14.339844 52.660156 -14.285156 52.859375 -14.285156 C 52.796875 -14.285156 52.761719 -14.28125 52.742188 -14.28125 C 52.875 -14.292969 53.015625 -14.339844 53.171875 -14.417969 L 52.425781 -15.910156 L 53.226562 -14.445312 C 51.953125 -13.75 50.761719 -13.171875 49.648438 -12.714844 C 48.507812 -12.246094 47.34375 -11.871094 46.160156 -11.589844 C 44.980469 -11.3125 43.714844 -11.109375 42.359375 -10.988281 C 41.035156 -10.867188 39.519531 -10.804688 37.820312 -10.804688 C 35.417969 -10.804688 33.292969 -11.375 31.445312 -12.511719 C 29.652344 -13.613281 28.160156 -15.078125 26.964844 -16.910156 C 25.804688 -18.695312 24.9375 -20.757812 24.371094 -23.101562 C 23.820312 -25.390625 23.542969 -27.789062 23.542969 -30.296875 C 23.542969 -33.171875 23.949219 -35.832031 24.757812 -38.277344 C 25.578125 -40.75 26.734375 -42.894531 28.226562 -44.707031 C 29.746094 -46.542969 31.582031 -47.988281 33.742188 -49.035156 C 35.914062 -50.089844 38.316406 -50.617188 40.949219 -50.617188 C 42.933594 -50.617188 44.78125 -50.316406 46.480469 -49.71875 C 48.089844 -49.148438 49.550781 -48.503906 50.863281 -47.777344 C 52.136719 -47.074219 53.257812 -46.394531 54.226562 -45.746094 C 55.007812 -45.222656 55.617188 -44.894531 56.054688 -44.769531 L 55.597656 -43.164062 L 55.972656 -44.792969 C 56.226562 -44.734375 56.421875 -44.703125 56.554688 -44.703125 C 56.589844 -44.703125 56.617188 -44.707031 56.632812 -44.707031 C 56.605469 -44.703125 56.574219 -44.695312 56.53125 -44.679688 C 56.285156 -44.585938 56.089844 -44.410156 55.949219 -44.148438 L 55.953125 -44.144531 C 55.9375 -44.089844 55.929688 -44.023438 55.929688 -43.949219 C 55.929688 -44.992188 55.890625 -46.234375 55.820312 -47.667969 C 55.75 -49.121094 55.664062 -50.550781 55.5625 -51.964844 L 55.300781 -55.839844 C 55.226562 -57.035156 55.1875 -57.867188 55.1875 -58.335938 C 55.1875 -59.652344 55.761719 -60.308594 56.902344 -60.308594 L 56.902344 -58.640625 L 55.8125 -57.378906 C 55.238281 -57.871094 54.5 -58.402344 53.601562 -58.964844 C 52.734375 -59.507812 51.644531 -60.011719 50.324219 -60.480469 C 48.980469 -60.953125 47.390625 -61.351562 45.554688 -61.667969 C 43.722656 -61.984375 41.578125 -62.144531 39.121094 -62.144531 C 36.058594 -62.144531 33.144531 -61.757812 30.375 -60.988281 C 27.609375 -60.21875 25.042969 -59.125 22.679688 -57.707031 C 20.3125 -56.292969 18.175781 -54.59375 16.261719 -52.613281 C 14.351562 -50.628906 12.71875 -48.429688 11.371094 -46.003906 C 10.019531 -43.578125 8.976562 -40.960938 8.246094 -38.15625 C 7.511719 -35.355469 7.148438 -32.429688 7.148438 -29.386719 Z M 7.148438 -29.386719 "/></g></g></g><path stroke-linecap="round" transform="matrix(1.757321, 0, 0, 1.757321, 74.094509, 130.575324)" fill="none" stroke-linejoin="miter" d="M 2.500267 2.50007 L 114.046998 2.50007 " stroke="#ff6a00" stroke-width="5" stroke-opacity="1" stroke-miterlimit="4"/><path stroke-linecap="round" transform="matrix(1.757321, 0, 0, 1.757321, 74.094509, 214.516693)" fill="none" stroke-linejoin="miter" d="M 2.500267 2.500091 L 114.046998 2.500091 " stroke="#ff6a00" stroke-width="5" stroke-opacity="1" stroke-miterlimit="4"/></g></g></svg>